Coordinates
version=1
nRows=16
nColumns=40
inDegrees=yes

Units are S.I. units (second, meters, Newtons, ...)
Angles are in degrees.

endheader
time	pelvis_tilt	pelvis_list	pelvis_rotation	pelvis_tx	pelvis_ty	pelvis_tz	hip_flexion_r	hip_adduction_r	hip_rotation_r	knee_angle_r	knee_angle_r_beta	ankle_angle_r	subtalar_angle_r	mtp_angle_r	hip_flexion_l	hip_adduction_l	hip_rotation_l	knee_angle_l	knee_angle_l_beta	ankle_angle_l	subtalar_angle_l	mtp_angle_l	lumbar_extension	lumbar_bending	lumbar_rotation	arm_flex_r	arm_add_r	arm_rot_r	elbow_flex_r	pro_sup_r	wrist_flex_r	wrist_dev_r	arm_flex_l	arm_add_l	arm_rot_l	elbow_flex_l	pro_sup_l	wrist_flex_l	wrist_dev_l
     53.70128571	     -5.98555705	     -6.25449393	      5.11212935	      1.09616681	      0.90718014	      0.49477454	     -5.01599740	      4.81147797	    -18.65841011	      7.21824453	      7.21824453	     18.96845271	      5.22627476	     -3.43168575	     36.51016365	     -7.39793885	     -1.58487105	     18.69083415	     18.69083415	      4.04217169	     -8.57784473	      8.90471935	     -8.16671797	      5.70460570	      4.55135030	     57.47006000	    -16.47605938	     -4.06905087	    111.20540151	     44.13766743	      0.00000000	      0.00000000	    -15.97369543	     -6.45827375	      4.76117124	     24.53790756	     44.64672557	      0.00000000	      0.00000000
     53.71257143	     -6.04371587	     -6.25381207	      5.03878226	      1.09763749	      0.90510132	      0.49247750	     -5.24130924	      4.54915426	    -18.22413136	      8.21849839	      8.21849839	     20.23997382	      4.61677695	     -1.61767650	     36.50040750	     -7.20658376	     -1.22004301	     19.68128605	     19.68128605	      1.72350358	    -11.23412097	      5.87861462	     -7.97483468	      5.72855166	      4.59909951	     58.44317967	    -16.71455853	     -3.56354737	    112.58627380	     44.15004155	      0.00000000	      0.00000000	    -16.55394471	     -6.40919304	      5.03886787	     24.26713618	     44.66881675	      0.00000000	      0.00000000
     53.72385714	     -5.99918801	     -6.08762093	      4.94439608	      1.09929829	      0.90342274	      0.49014648	     -5.65419806	      4.10727003	    -17.95697184	      9.05319084	      9.05319084	     20.76378018	      4.20467559	     -1.66836564	     36.50111537	     -7.03615803	     -1.40756793	     21.14979000	     21.14979000	      1.06550935	    -12.37995453	      5.69344962	     -7.84997418	      5.52378233	      4.55018169	     59.09974078	    -16.57799255	     -3.52339278	    113.22245319	     44.14015353	      0.00000000	      0.00000000	    -17.13048996	     -6.37101929	      5.06855013	     23.93107487	     44.66568992	      0.00000000	      0.00000000
     53.73514286	     -6.08056371	     -5.88993599	      4.79869941	      1.10080634	      0.90183158	      0.48778331	     -5.66364481	      3.55647306	    -17.32157729	     10.38197376	     10.38197376	     21.38258886	      3.20000537	     -1.41071747	     36.52892982	     -6.78089912	     -1.34626083	     22.42306346	     22.42306346	      0.18764774	    -13.91287286	      5.23851377	     -7.60567368	      5.27184322	      4.46918958	     59.39517457	    -16.53204598	     -3.29366654	    114.16123650	     44.12967136	      0.00000000	      0.00000000	    -17.51991122	     -6.29269075	      5.09909880	     23.35232904	     44.69312377	      0.00000000	      0.00000000
     53.74642857	     -6.01611147	     -5.71691661	      4.69012861	      1.10237467	      0.90067093	      0.48531376	     -5.76630738	      3.02160820	    -16.82041072	     11.81485385	     11.81485385	     21.79389931	      2.31038029	     -1.44522483	     36.50472612	     -6.60079945	     -1.35678328	     23.91110645	     23.91110645	     -0.14959352	    -14.90781133	      4.91369743	     -7.52140063	      5.06933660	      4.38114395	     59.53441952	    -16.48282585	     -3.22500093	    114.88214042	     44.12332450	      0.00000000	      0.00000000	    -17.68993934	     -6.22854626	      5.11868333	     22.85222970	     44.71728265	      0.00000000	      0.00000000
     53.75771429	     -5.87599613	     -5.54931216	      4.59658662	      1.10386913	      0.89994926	      0.48274094	     -5.78152889	      2.45018963	    -16.32801416	     13.53705195	     13.53705195	     22.03699010	      1.35263150	     -1.72181446	     36.38674498	     -6.42043551	     -1.31929538	     25.38466423	     25.38466423	     -0.07947433	    -15.67250253	      4.67519856	     -7.55308474	      4.89232232	      4.21234020	     59.47434116	    -16.39190114	     -3.18481934	    115.50746777	     44.11328476	      0.00000000	      0.00000000	    -17.67765265	     -6.16988953	      5.14949355	     22.45359890	     44.73285840	      0.00000000	      0.00000000
     53.76900000	     -5.44831904	     -5.32360190	      4.61040838	      1.10563235	      0.90027653	      0.47991920	     -6.29423120	      1.88680091	    -16.15110311	     14.88768353	     14.88768353	     21.88888125	      0.71020695	     -1.89544517	     35.82109761	     -6.14793870	     -1.19781494	     26.65111344	     26.65111344	      0.26426399	    -16.19991216	      4.40344257	     -7.86357943	      4.65375893	      3.99502979	     58.89470581	    -16.32751585	     -3.12352246	    115.70782878	     44.10572149	      0.00000000	      0.00000000	    -17.61145709	     -6.12397057	      5.17486119	     22.29244436	     44.73611975	      0.00000000	      0.00000000
     53.78028571	     -5.58437168	     -5.04899586	      4.44523734	      1.10643969	      0.89985840	      0.47714925	     -5.07126973	      0.97736147	    -15.29776665	     18.27793495	     18.27793495	     21.84242209	     -1.42236012	     -2.89808769	     35.88673907	     -5.83457381	     -1.25421027	     27.90613672	     27.90613672	      0.86062947	    -16.60841609	      4.35575749	     -7.68984007	      4.41286500	      3.79869135	     58.37032061	    -16.11933174	     -3.09045770	    116.67643793	     44.08400541	      0.00000000	      0.00000000	    -17.18740026	     -6.04945380	      5.26510233	     21.71090159	     44.75369205	      0.00000000	      0.00000000
     53.79157143	     -5.40432336	     -4.84034842	      4.39600337	      1.10747996	      0.90057101	      0.47423217	     -4.52476990	      0.39315576	    -14.29565827	     20.79096156	     20.79096156	     20.18984310	     -4.37931119	     -6.13312730	     35.53107371	     -5.51753262	     -1.09046597	     29.06589258	     29.06589258	      2.37313408	    -16.70754916	      5.96843301	     -7.81163492	      4.22984103	      4.18860949	     56.94907663	    -16.70719083	     -3.68863168	    118.06346063	     44.11298047	      0.00000000	      0.00000000	    -15.75495875	     -5.96603804	      5.57307623	     19.84779494	     44.84260562	      0.00000000	      0.00000000
     53.80285714	     -5.07314703	     -4.58113700	      4.34313189	      1.10856390	      0.90182548	      0.47115118	     -3.87170261	     -0.47216201	    -14.13801725	     23.96132512	     23.96132512	     19.40283735	     -5.67969520	     -6.87027200	     34.80416446	     -5.19107952	     -1.12606322	     29.85108372	     29.85108372	      3.26311379	    -16.88069065	      5.59486083	     -8.09668098	      4.05961921	      3.82902279	     55.76137409	    -16.43239556	     -3.54206463	    118.18099070	     44.10568259	      0.00000000	      0.00000000	    -15.24406244	     -5.94990483	      5.61599456	     19.88306131	     44.85600395	      0.00000000	      0.00000000
     53.81414286	     -5.09611370	     -4.31969127	      4.26390158	      1.10908875	      0.90291018	      0.46808341	     -2.54897640	     -1.26639563	    -13.44031065	     27.25195317	     27.25195317	     16.18675021	     -9.42578334	    -12.65488633	     34.36547733	     -4.79287010	     -1.12283178	     30.43446925	     30.43446925	      4.64895993	    -16.84476810	      6.62259024	     -8.02705489	      3.88209611	      3.93726186	     54.03693251	    -16.58606349	     -4.05744262	    118.99376413	     44.16697387	      0.00000000	      0.00000000	    -14.02439550	     -5.93315207	      5.99367856	     19.17375315	     44.93525701	      0.00000000	      0.00000000
     53.82542857	     -4.84798512	     -3.99191464	      4.16067345	      1.10973024	      0.90463266	      0.46490257	     -1.27679825	     -2.31153585	    -13.30317655	     31.18747288	     31.18747288	     14.63157119	    -11.13419120	    -13.06716648	     33.45794229	     -4.38927545	     -1.32882314	     30.73146270	     30.73146270	      5.50126083	    -16.90534374	      6.21467122	     -8.25647270	      3.68718453	      3.58474230	     52.39641764	    -16.26616754	     -3.86167420	    118.86941386	     44.16257537	      0.00000000	      0.00000000	    -13.24431737	     -5.94494335	      6.03212344	     19.42313794	     44.95193192	      0.00000000	      0.00000000
     53.83671429	     -4.85871136	     -3.72969601	      4.02947798	      1.10994552	      0.90620696	      0.46182915	      0.57201568	     -3.27860310	    -12.96828288	     35.42074787	     35.42074787	     12.44493276	    -13.49441155	    -13.51797995	     32.67866210	     -4.01600793	     -1.51273263	     30.68277658	     30.68277658	      6.31027377	    -16.90859460	      5.90666756	     -8.21364029	      3.55668715	      3.30796713	     50.50450785	    -16.02795605	     -3.82883319	    118.69660149	     44.16546114	      0.00000000	      0.00000000	    -12.31907825	     -5.96199967	      6.06980249	     19.74133651	     44.97267273	      0.00000000	      0.00000000
     53.84800000	     -4.75475739	     -3.48379908	      3.89447260	      1.11010308	      0.90805506	      0.45891174	      2.35494622	     -4.22565435	    -12.75794469	     39.58103316	     39.58103316	      9.85412848	    -15.74045209	    -13.65488115	     31.74174392	     -3.68949284	     -1.75172831	     30.55848967	     30.55848967	      7.04756851	    -16.87578885	      5.62795161	     -8.31498556	      3.46912921	      3.09520274	     48.41745548	    -15.77125764	     -3.83063425	    118.37742098	     44.17228838	      0.00000000	      0.00000000	    -11.26814598	     -6.02019362	      6.09069153	     20.14937355	     44.99697560	      0.00000000	      0.00000000
     53.85928571	     -4.65388510	     -3.24004685	      3.73545251	      1.11007898	      0.90997627	      0.45599459	      4.23250229	     -5.24194849	    -12.67785395	     43.70428308	     43.70428308	      7.08563383	    -17.53040526	    -13.30891325	     30.74773154	     -3.37013157	     -2.04661359	     30.31133365	     30.31133365	      7.71265177	    -16.77824767	      5.35869330	     -8.43827056	      3.43606260	      2.90120789	     46.20874900	    -15.48909156	     -3.83066928	    117.88724237	     44.18265460	      0.00000000	      0.00000000	    -10.11888879	     -6.10350782	      6.08981893	     20.65784454	     45.02472099	      0.00000000	      0.00000000
     53.87057143	     -4.71666313	     -3.08646957	      3.54186233	      1.10981030	      0.91164516	      0.45338616	      6.58151480	     -6.11996279	    -12.45068872	     48.16393111	     48.16393111	      5.63871778	    -18.30401373	     -8.64063871	     29.84884487	     -3.14348055	     -2.32373771	     29.84073834	     29.84073834	      8.15480077	    -16.72273852	      4.83220385	     -8.34506463	      3.39455215	      3.18261954	     43.48654739	    -15.44711071	     -5.00932931	    117.54877535	     44.27360435	      0.00000000	      0.00000000	     -8.86396895	     -6.29547252	      6.11649459	     21.58077062	     45.09934353	      0.00000000	      0.00000000
